<mxfile host="app.diagrams.net" modified="2024-06-19T11:26:47.446Z" agent="Mozilla/5.0 (Windows NT 10.0; Win64; x64) AppleWebKit/537.36 (KHTML, like Gecko) Chrome/126.0.0.0 Safari/537.36 Edg/126.0.0.0" etag="NdYrNugEBkWoWwKzwTv5" version="24.4.10" type="github">
  <diagram name="第 1 页" id="LwP4LTS7k0_5lWOcU9k6">
    <mxGraphModel dx="1181" dy="635" grid="1" gridSize="10" guides="1" tooltips="1" connect="1" arrows="1" fold="1" page="1" pageScale="1" pageWidth="1000" pageHeight="1000" math="1" shadow="0">
      <root>
        <mxCell id="0" />
        <mxCell id="1" parent="0" />
        <mxCell id="TrSyxSCE9ZPCGEtIvVf1-12" value="$$0$$" style="text;html=1;align=center;verticalAlign=middle;whiteSpace=wrap;rounded=0;" vertex="1" parent="1">
          <mxGeometry x="360" y="95" width="60" height="20" as="geometry" />
        </mxCell>
        <mxCell id="TrSyxSCE9ZPCGEtIvVf1-15" value="$$-1.0 \times 2^{-126}$$" style="text;html=1;align=center;verticalAlign=middle;whiteSpace=wrap;rounded=0;" vertex="1" parent="1">
          <mxGeometry x="250" y="90" width="60" height="25" as="geometry" />
        </mxCell>
        <mxCell id="TrSyxSCE9ZPCGEtIvVf1-16" value="$$+1.0 \times 2^{-126}$$" style="text;html=1;align=center;verticalAlign=middle;whiteSpace=wrap;rounded=0;" vertex="1" parent="1">
          <mxGeometry x="470" y="90" width="60" height="25" as="geometry" />
        </mxCell>
        <mxCell id="TrSyxSCE9ZPCGEtIvVf1-17" value="$$-1.\dot{1} \times 2^{127}$$" style="text;html=1;align=center;verticalAlign=middle;whiteSpace=wrap;rounded=0;" vertex="1" parent="1">
          <mxGeometry x="140" y="90" width="60" height="25" as="geometry" />
        </mxCell>
        <mxCell id="TrSyxSCE9ZPCGEtIvVf1-18" value="$$+1.\dot{1} \times 2^{127}$$" style="text;html=1;align=center;verticalAlign=middle;whiteSpace=wrap;rounded=0;" vertex="1" parent="1">
          <mxGeometry x="590" y="92.5" width="60" height="25" as="geometry" />
        </mxCell>
        <mxCell id="TrSyxSCE9ZPCGEtIvVf1-20" value="M1" style="rounded=0;whiteSpace=wrap;html=1;fillColor=#fff2cc;strokeColor=#d6b656;" vertex="1" parent="1">
          <mxGeometry x="110" y="170" width="120" height="20" as="geometry" />
        </mxCell>
        <mxCell id="TrSyxSCE9ZPCGEtIvVf1-21" value="M2" style="rounded=0;whiteSpace=wrap;html=1;fillColor=#fff2cc;strokeColor=#d6b656;" vertex="1" parent="1">
          <mxGeometry x="170" y="200" width="120" height="20" as="geometry" />
        </mxCell>
        <mxCell id="TrSyxSCE9ZPCGEtIvVf1-22" value="M1 &amp;lt;&amp;lt; (E1 - E2) + M2" style="rounded=0;whiteSpace=wrap;html=1;fillColor=#fff2cc;strokeColor=#d6b656;" vertex="1" parent="1">
          <mxGeometry x="100" y="240" width="190" height="20" as="geometry" />
        </mxCell>
        <mxCell id="TrSyxSCE9ZPCGEtIvVf1-23" value="" style="endArrow=classic;startArrow=classic;html=1;rounded=0;exitX=1;exitY=0.5;exitDx=0;exitDy=0;" edge="1" parent="1" source="TrSyxSCE9ZPCGEtIvVf1-20">
          <mxGeometry width="50" height="50" relative="1" as="geometry">
            <mxPoint x="480" y="350" as="sourcePoint" />
            <mxPoint x="290" y="180" as="targetPoint" />
          </mxGeometry>
        </mxCell>
        <mxCell id="TrSyxSCE9ZPCGEtIvVf1-24" value="E1 - E2" style="text;html=1;align=center;verticalAlign=middle;whiteSpace=wrap;rounded=0;" vertex="1" parent="1">
          <mxGeometry x="230" y="160" width="60" height="20" as="geometry" />
        </mxCell>
        <mxCell id="TrSyxSCE9ZPCGEtIvVf1-25" value="" style="endArrow=none;html=1;rounded=0;" edge="1" parent="1">
          <mxGeometry width="50" height="50" relative="1" as="geometry">
            <mxPoint x="80" y="230" as="sourcePoint" />
            <mxPoint x="320" y="230" as="targetPoint" />
          </mxGeometry>
        </mxCell>
        <mxCell id="TrSyxSCE9ZPCGEtIvVf1-26" value="+" style="text;html=1;align=center;verticalAlign=middle;whiteSpace=wrap;rounded=0;fontSize=16;" vertex="1" parent="1">
          <mxGeometry x="80" y="195" width="20" height="30" as="geometry" />
        </mxCell>
        <mxCell id="TrSyxSCE9ZPCGEtIvVf1-33" value="E = 0" style="rounded=0;whiteSpace=wrap;html=1;fontSize=9;" vertex="1" parent="1">
          <mxGeometry x="280" y="30" width="220" height="20" as="geometry" />
        </mxCell>
        <mxCell id="TrSyxSCE9ZPCGEtIvVf1-34" value="E = 1 ~ 254" style="rounded=0;whiteSpace=wrap;html=1;fontSize=9;" vertex="1" parent="1">
          <mxGeometry x="500" y="30" width="120" height="20" as="geometry" />
        </mxCell>
        <mxCell id="TrSyxSCE9ZPCGEtIvVf1-35" value="E = 255" style="rounded=0;whiteSpace=wrap;html=1;fontSize=9;" vertex="1" parent="1">
          <mxGeometry x="620" y="30" width="70" height="20" as="geometry" />
        </mxCell>
        <mxCell id="TrSyxSCE9ZPCGEtIvVf1-36" value="E = 1 ~ 254" style="rounded=0;whiteSpace=wrap;html=1;fontSize=9;" vertex="1" parent="1">
          <mxGeometry x="160" y="30" width="120" height="20" as="geometry" />
        </mxCell>
        <mxCell id="TrSyxSCE9ZPCGEtIvVf1-37" value="E = 255" style="rounded=0;whiteSpace=wrap;html=1;fontSize=9;" vertex="1" parent="1">
          <mxGeometry x="90" y="30" width="70" height="20" as="geometry" />
        </mxCell>
        <mxCell id="TrSyxSCE9ZPCGEtIvVf1-38" value="M ≠ 0" style="rounded=0;whiteSpace=wrap;html=1;fontSize=9;" vertex="1" parent="1">
          <mxGeometry x="650" y="50" width="40" height="20" as="geometry" />
        </mxCell>
        <mxCell id="TrSyxSCE9ZPCGEtIvVf1-39" value="M = 0" style="rounded=0;whiteSpace=wrap;html=1;fontSize=9;" vertex="1" parent="1">
          <mxGeometry x="620" y="50" width="30" height="20" as="geometry" />
        </mxCell>
        <mxCell id="TrSyxSCE9ZPCGEtIvVf1-40" value="M ≠ 0" style="rounded=0;whiteSpace=wrap;html=1;fontSize=9;" vertex="1" parent="1">
          <mxGeometry x="90" y="50" width="40" height="20" as="geometry" />
        </mxCell>
        <mxCell id="TrSyxSCE9ZPCGEtIvVf1-41" value="M = 0" style="rounded=0;whiteSpace=wrap;html=1;fontSize=9;" vertex="1" parent="1">
          <mxGeometry x="130" y="50" width="30" height="20" as="geometry" />
        </mxCell>
        <mxCell id="TrSyxSCE9ZPCGEtIvVf1-43" value="M = 0" style="rounded=0;whiteSpace=wrap;html=1;fontSize=9;" vertex="1" parent="1">
          <mxGeometry x="360" y="50" width="60" height="20" as="geometry" />
        </mxCell>
        <mxCell id="TrSyxSCE9ZPCGEtIvVf1-44" value="M ≠ 0" style="rounded=0;whiteSpace=wrap;html=1;fontSize=9;" vertex="1" parent="1">
          <mxGeometry x="280" y="50" width="80" height="20" as="geometry" />
        </mxCell>
        <mxCell id="TrSyxSCE9ZPCGEtIvVf1-45" value="M ≠ 0" style="rounded=0;whiteSpace=wrap;html=1;fontSize=9;" vertex="1" parent="1">
          <mxGeometry x="420" y="50" width="80" height="20" as="geometry" />
        </mxCell>
        <mxCell id="TrSyxSCE9ZPCGEtIvVf1-2" value="- 非规格化数" style="rounded=0;whiteSpace=wrap;html=1;fillColor=#fff2cc;strokeColor=#d6b656;fontSize=10;" vertex="1" parent="1">
          <mxGeometry x="280" y="70" width="80" height="20" as="geometry" />
        </mxCell>
        <mxCell id="TrSyxSCE9ZPCGEtIvVf1-3" value="- 规格化数" style="rounded=0;whiteSpace=wrap;html=1;fillColor=#fff2cc;strokeColor=#d6b656;fontSize=10;" vertex="1" parent="1">
          <mxGeometry x="160" y="70" width="120" height="20" as="geometry" />
        </mxCell>
        <mxCell id="TrSyxSCE9ZPCGEtIvVf1-4" value="- inf" style="rounded=0;whiteSpace=wrap;html=1;fillColor=#d5e8d4;strokeColor=#82b366;fontSize=10;" vertex="1" parent="1">
          <mxGeometry x="130" y="70" width="30" height="20" as="geometry" />
        </mxCell>
        <mxCell id="TrSyxSCE9ZPCGEtIvVf1-5" value="NaN" style="rounded=0;whiteSpace=wrap;html=1;fillColor=#f8cecc;strokeColor=#b85450;fontSize=10;" vertex="1" parent="1">
          <mxGeometry x="90" y="70" width="40" height="20" as="geometry" />
        </mxCell>
        <mxCell id="TrSyxSCE9ZPCGEtIvVf1-6" value="非规格化数" style="rounded=0;whiteSpace=wrap;html=1;fillColor=#fff2cc;strokeColor=#d6b656;fontSize=10;" vertex="1" parent="1">
          <mxGeometry x="420" y="70" width="80" height="20" as="geometry" />
        </mxCell>
        <mxCell id="TrSyxSCE9ZPCGEtIvVf1-7" value="-0" style="rounded=0;whiteSpace=wrap;html=1;fillColor=#d5e8d4;strokeColor=#82b366;fontSize=10;" vertex="1" parent="1">
          <mxGeometry x="360" y="70" width="30" height="20" as="geometry" />
        </mxCell>
        <mxCell id="TrSyxSCE9ZPCGEtIvVf1-8" value="+0" style="rounded=0;whiteSpace=wrap;html=1;fillColor=#d5e8d4;strokeColor=#82b366;fontSize=10;" vertex="1" parent="1">
          <mxGeometry x="390" y="70" width="30" height="20" as="geometry" />
        </mxCell>
        <mxCell id="TrSyxSCE9ZPCGEtIvVf1-9" value="规格化数" style="rounded=0;whiteSpace=wrap;html=1;fillColor=#fff2cc;strokeColor=#d6b656;fontSize=10;" vertex="1" parent="1">
          <mxGeometry x="500" y="70" width="120" height="20" as="geometry" />
        </mxCell>
        <mxCell id="TrSyxSCE9ZPCGEtIvVf1-10" value="+ inf" style="rounded=0;whiteSpace=wrap;html=1;fillColor=#d5e8d4;strokeColor=#82b366;fontSize=10;" vertex="1" parent="1">
          <mxGeometry x="620" y="70" width="30" height="20" as="geometry" />
        </mxCell>
        <mxCell id="TrSyxSCE9ZPCGEtIvVf1-11" value="NaN" style="rounded=0;whiteSpace=wrap;html=1;fillColor=#f8cecc;strokeColor=#b85450;fontSize=10;" vertex="1" parent="1">
          <mxGeometry x="650" y="70" width="40" height="20" as="geometry" />
        </mxCell>
        <mxCell id="TrSyxSCE9ZPCGEtIvVf1-19" value="" style="endArrow=classic;html=1;rounded=0;strokeWidth=2;" edge="1" parent="1">
          <mxGeometry width="50" height="50" relative="1" as="geometry">
            <mxPoint x="70" y="90" as="sourcePoint" />
            <mxPoint x="720" y="90" as="targetPoint" />
          </mxGeometry>
        </mxCell>
      </root>
    </mxGraphModel>
  </diagram>
</mxfile>
